# xmcd
#
# Track frame offsets: 
#        150
#        15683
#        34343
#        48609
#        64221
#        79003
#        100689
#        116566
#        133686
#        155411
#
# Disc length: 2350 seconds
#
# Revision: 0
# Processed by: cddbd v1.5.2PL0 Copyright (c) Steve Scherf et al.
# Submitted via: ExactAudioCopy v0.95a5
#
DISCID=81092c0a
DTITLE=BLUESBALL - Bluesball
DYEAR=2005
DGENRE=Rock
TTITLE0=She's On A Roll 
TTITLE1=I Know Why
TTITLE2=Her Memory
TTITLE3=These Blues
TTITLE4=Can't Get Over You
TTITLE5=What Has Changed
TTITLE6=You're The Reason I Got The Blues
TTITLE7=The One Who Loved Me
TTITLE8=Fool
TTITLE9=Let Him Cry
EXTD=
EXTT0=
EXTT1=
EXTT2=
EXTT3=
EXTT4=
EXTT5=
EXTT6=
EXTT7=
EXTT8=
EXTT9=
PLAYORDER=
